<svg xmlns="http://www.w3.org/2000/svg" viewBox="0 0 32 32" x="0px" y="0px">
    <path d="M20.39006,16.59282h-1.1289v1.89942h1.1289a.951.951,0,1,0,0-1.89942Z"/>
    <path d="M27,7H17a2,2,0,0,1-1.6-.8L13.6,3.8A1.99993,1.99993,0,0,0,12,3H5A2,2,0,0,0,3,5V27a2,2,0,0,0,2,2H27a2,2,0,0,0,2-2V9A2,2,0,0,0,27,7ZM14.08928,22.00005H9.86174a.61067.61067,0,0,1-.62988-.60938.69071.69071,0,0,1,.18066-.41992l3.33789-4.34765H10.21135a.61063.61063,0,0,1-.62891-.61035.604.604,0,0,1,.62891-.60938h3.78809a.60826.60826,0,0,1,.62011.60938.73983.73983,0,0,1-.16992.42968l-3.33789,4.33789h2.97754a.60995.60995,0,1,1,0,1.21973Zm2.62207-.56934a.675.675,0,1,1-1.34961,0v-5.458a.675.675,0,1,1,1.34961,0ZM20.4008,19.671H19.26116v1.75976a.675.675,0,1,1-1.34961,0V16.09282a.66717.66717,0,0,1,.69043-.68945H20.4008A2.14306,2.14306,0,0,1,22.769,17.53228,2.16666,2.16666,0,0,1,20.4008,19.671Z"/>
</svg>